<?xml version="1.0" encoding="UTF-8"?>
<svg id="_レイヤー_1" data-name="レイヤー_1" xmlns="http://www.w3.org/2000/svg" version="1.1" viewBox="0 0 100 100">
  <!-- Generator: Adobe Illustrator 29.8.1, SVG Export Plug-In . SVG Version: 2.1.1 Build 2)  -->
  <defs>
    <style>
      .st0 {
        fill: #024b9e;
      }
    </style>
  </defs>
  <path class="st0" d="M11.2,17.7h3c.9,0,1.7,0,2.5-.2.8-.1,1.5-.4,2.2-.7.7-.3,1.2-.8,1.6-1.5.4-.6.6-1.4.6-2.5s-.5-2.4-1.5-3.2c-1-.8-2.3-1.3-3.8-1.3s-2.6.4-3.5,1.2c-.9.8-1.5,1.7-1.8,2.9L.4,10.3c.5-1.9,1.2-3.5,2.2-4.8,1-1.3,2.1-2.4,3.5-3.2,1.3-.8,2.8-1.4,4.5-1.8,1.6-.4,3.4-.6,5.2-.6s3.7.2,5.5.7c1.8.5,3.3,1.2,4.6,2.2,1.3,1,2.4,2.2,3.2,3.7.8,1.5,1.2,3.3,1.2,5.3s-.6,4.4-1.9,6.1c-1.3,1.7-3.1,2.8-5.5,3.3v.2c1.3.2,2.4.5,3.4,1.2,1,.6,1.8,1.4,2.5,2.2s1.2,1.9,1.6,3c.4,1.1.5,2.3.5,3.6,0,2.1-.4,4-1.2,5.7-.8,1.6-1.9,3-3.3,4-1.4,1.1-3,1.9-4.9,2.4-1.9.5-3.9.8-6,.8-3.8,0-7.2-.9-9.9-2.7-2.8-1.8-4.6-4.6-5.5-8.4l9.6-2.2c.3,1.5,1,2.8,2,3.6,1,.9,2.5,1.3,4.4,1.3s3.5-.5,4.4-1.5c1-1,1.4-2.4,1.4-4s-.3-2.2-.8-2.8c-.5-.7-1.2-1.2-2-1.5-.8-.3-1.7-.5-2.7-.6-1,0-2,0-3,0h-2.1v-7.9Z"/>
  <path class="st0" d="M37.5,34.1l16.7-15c.9-.8,1.7-1.6,2.6-2.6.9-1,1.3-2.1,1.3-3.4s-.5-2.6-1.6-3.4c-1.1-.8-2.3-1.2-3.7-1.2s-3,.5-4,1.6c-1,1.1-1.5,2.3-1.6,3.9l-9.1-.7c.1-2.2.6-4.2,1.4-5.8.8-1.6,1.9-3,3.2-4.1,1.3-1.1,2.9-1.9,4.7-2.5,1.8-.5,3.8-.8,5.9-.8s3.8.3,5.5.8c1.7.5,3.2,1.4,4.4,2.4,1.3,1.1,2.2,2.4,2.9,4,.7,1.6,1.1,3.5,1.1,5.6s-.1,2.6-.4,3.7-.7,2.1-1.2,3c-.5.9-1.1,1.8-1.8,2.5-.7.8-1.4,1.5-2.2,2.2l-13.1,11.2h19.1v8h-30v-9.7Z"/>
  <path class="st0" d="M88.2,10.4l-8.8,7.7-5.3-6.1L88.4,0h8.6v43.7h-8.9V10.4Z"/>
  <path class="st0" d="M2.9,51.2h9.1v28.1l10.1-11.7h11.2l-11.7,13.3,12,16.2h-11.5l-10-14.9h-.1v14.9H2.9v-45.9Z"/>
  <path class="st0" d="M63.4,91.3c-1.5,1.9-3.3,3.3-5.5,4.3-2.2,1-4.5,1.5-6.9,1.5s-4.4-.4-6.4-1.1c-2-.7-3.7-1.8-5.2-3.1-1.5-1.4-2.6-3-3.5-4.9-.9-1.9-1.3-4-1.3-6.4s.4-4.5,1.3-6.4c.8-1.9,2-3.5,3.5-4.9,1.5-1.4,3.2-2.4,5.2-3.1,2-.7,4.1-1.1,6.4-1.1s4,.4,5.7,1.1c1.7.7,3.2,1.8,4.4,3.1,1.2,1.4,2.1,3,2.8,4.9.6,1.9,1,4,1,6.4v2.9h-21.1c.4,1.7,1.2,3.1,2.4,4.2,1.2,1,2.7,1.5,4.5,1.5s2.8-.3,3.8-1c1-.7,1.9-1.5,2.7-2.6l6.4,4.7ZM55.7,78.3c0-1.5-.5-2.9-1.5-3.9-1.1-1.1-2.4-1.6-4.1-1.6s-1.9.2-2.7.5c-.8.3-1.4.7-2,1.2-.5.5-1,1.1-1.3,1.8-.3.7-.5,1.4-.5,2.1h12Z"/>
  <path class="st0" d="M71.6,67.6h8.7v4h.1c.3-.6.7-1.1,1.2-1.7s1.2-1.1,1.9-1.5c.7-.4,1.6-.8,2.5-1.1.9-.3,1.9-.4,3-.4,2.3,0,4.2.4,5.6,1.1,1.4.7,2.5,1.7,3.3,2.9.8,1.3,1.3,2.7,1.6,4.4.3,1.7.4,3.5.4,5.5v16.3h-9.1v-14.5c0-.9,0-1.7,0-2.6,0-.9-.2-1.8-.5-2.5-.3-.8-.8-1.4-1.4-1.9-.6-.5-1.5-.7-2.7-.7s-2.1.2-2.9.6c-.7.4-1.3,1-1.7,1.7-.4.7-.6,1.5-.8,2.4-.1.9-.2,1.8-.2,2.8v14.7h-9.1v-29.5Z"/>
</svg>